<?xml version="1.0" encoding="UTF-8" standalone="no"?>
<!-- Created with Inkscape (http://www.inkscape.org/) -->

<svg
   xmlns:osb="http://www.openswatchbook.org/uri/2009/osb"
   xmlns:dc="http://purl.org/dc/elements/1.1/"
   xmlns:cc="http://creativecommons.org/ns#"
   xmlns:rdf="http://www.w3.org/1999/02/22-rdf-syntax-ns#"
   xmlns:svg="http://www.w3.org/2000/svg"
   xmlns="http://www.w3.org/2000/svg"
   xmlns:xlink="http://www.w3.org/1999/xlink"
   xmlns:sodipodi="http://sodipodi.sourceforge.net/DTD/sodipodi-0.dtd"
   xmlns:inkscape="http://www.inkscape.org/namespaces/inkscape"
   width="3.5in"
   height="3.5in"
   viewBox="0 0 88.900001 88.900003"
   version="1.1"
   id="svg8"
   inkscape:version="0.92.3 (2405546, 2018-03-11)"
   sodipodi:docname="advisor.svg"
   inkscape:export-filename="C:\Users\salean\Documents\Sticker Designs\security-centre.png"
   inkscape:export-xdpi="96"
   inkscape:export-ydpi="96">
  <defs
     id="defs2">
    <inkscape:path-effect
       effect="bspline"
       id="path-effect2440"
       is_visible="true"
       weight="33.333333"
       steps="2"
       helper_size="0"
       apply_no_weight="true"
       apply_with_weight="true"
       only_selected="false" />
    <inkscape:path-effect
       effect="bspline"
       id="path-effect2436"
       is_visible="true"
       weight="33.333333"
       steps="2"
       helper_size="0"
       apply_no_weight="true"
       apply_with_weight="true"
       only_selected="false" />
    <linearGradient
       id="linearGradient2426"
       osb:paint="solid">
      <stop
         style="stop-color:#000000;stop-opacity:1;"
         offset="0"
         id="stop2424" />
    </linearGradient>
    <inkscape:path-effect
       effect="bspline"
       id="path-effect959"
       is_visible="true"
       weight="33.333333"
       steps="2"
       helper_size="0"
       apply_no_weight="true"
       apply_with_weight="true"
       only_selected="false" />
    <inkscape:path-effect
       effect="bspline"
       id="path-effect952"
       is_visible="true"
       weight="33.333333"
       steps="2"
       helper_size="0"
       apply_no_weight="true"
       apply_with_weight="true"
       only_selected="false" />
    <linearGradient
       inkscape:collect="always"
       xlink:href="#linearGradient2426"
       id="linearGradient2428"
       x1="8.8624945"
       y1="69.740303"
       x2="71.387512"
       y2="69.740303"
       gradientUnits="userSpaceOnUse" />
  </defs>
  <sodipodi:namedview
     id="base"
     pagecolor="#ffffff"
     bordercolor="#666666"
     borderopacity="1.0"
     inkscape:pageopacity="0.0"
     inkscape:pageshadow="2"
     inkscape:zoom="0.33595997"
     inkscape:cx="50.384292"
     inkscape:cy="968.49758"
     inkscape:document-units="mm"
     inkscape:current-layer="layer1"
     showgrid="false"
     inkscape:window-width="1920"
     inkscape:window-height="1017"
     inkscape:window-x="2992"
     inkscape:window-y="325"
     inkscape:window-maximized="1"
     units="in" />
  <metadata
     id="metadata5">
    <rdf:RDF>
      <cc:Work
         rdf:about="">
        <dc:format>image/svg+xml</dc:format>
        <dc:type
           rdf:resource="http://purl.org/dc/dcmitype/StillImage" />
        <dc:title></dc:title>
      </cc:Work>
    </rdf:RDF>
  </metadata>
  <g
     inkscape:label="Layer 1"
     inkscape:groupmode="layer"
     id="layer1"
     transform="translate(0,-208.09998)">
    <circle
       style="fill:#353539;fill-opacity:1;stroke:none;stroke-width:0.89449996;stroke-miterlimit:4;stroke-dasharray:none;stroke-opacity:0.09547741"
       id="path815"
       cx="99.012093"
       cy="236.89174"
       r="38.099998"
       transform="matrix(-0.84267868,0.53841679,0.53841679,0.84267868,0,0)" />
    <style
       id="style819"
       type="text/css">
	.st0{fill:#0072C6;}
	.st1{fill:#1B348E;}
	.st2{fill:#7A7A7A;}
	.st3{fill:#3E3E3E;}
	.st4{fill:#00BBF1;}
	.st5{fill:#59B4D9;}
	.st6{fill:#B0B0B0;}
	.st7{fill:#BAC84A;}
	.st8{fill:#6A6A6A;}
	.st9{fill:#FF94D4;}
	.st10{fill:#1A1A1A;}
	.st11{fill:#969696;}
	.st12{fill:#A7A7A7;}
	.st13{fill:#FCD116;}
	.st14{fill:#BD9D10;}
	.st15{fill:#495DA5;}
	.st16{opacity:0.8;fill:#CBEBF5;enable-background:new    ;}
	.st17{fill:#1E1E1E;}
	.st18{fill:#B8D432;}
	.st19{fill:#7FBA00;}
	.st20{opacity:0.4;fill:#B8D432;enable-background:new    ;}
	.st21{fill:#FFFFFF;}
</style>
    <text
       xml:space="preserve"
       style="font-style:normal;font-weight:normal;font-size:14.11111069px;line-height:1.25;font-family:sans-serif;letter-spacing:0px;word-spacing:0px;fill:#000000;fill-opacity:1;stroke:none;stroke-width:0.26458332"
       id="text942"><textPath
         xlink:href="#path950"
         id="textPath954"
         style="font-size:7.05555534px"></textPath></text>
    <g
       aria-label="Azure Advisor"
       style="font-style:normal;font-weight:normal;font-size:14.11111069px;line-height:1.25;font-family:sans-serif;letter-spacing:0px;word-spacing:0px;fill:#ffffff;fill-opacity:1;stroke:none;stroke-width:0.26458332;stroke-opacity:1"
       id="text963"
       transform="translate(-6.4395732,196.63899)">
      <path
         d="m 22.535146,73.597123 -0.670701,-0.859693 1.226778,-1.91401 -2.047069,-2.623898 -2.154953,0.724293 -0.638915,-0.818949 7.789589,-2.524742 0.839171,1.075635 z m 1.054822,-3.562616 2.148733,-3.387026 -3.811183,1.256128 z"
         style="font-size:10.58333302px;letter-spacing:0.5291667px"
         id="path833"
         inkscape:connector-curvature="0" />
      <path
         d="m 26.89064,77.464133 -3.485745,-3.094592 0.476883,-0.53716 5.33246,-0.939266 -2.461662,-2.185426 0.538637,-0.606721 3.365947,2.988236 -0.459729,0.517838 -5.354346,0.940567 2.593054,2.302074 z"
         style="font-size:10.58333302px;letter-spacing:0.5291667px"
         id="path835"
         inkscape:connector-curvature="0" />
      <path
         d="m 32.505581,81.107535 -0.82817,-0.507917 0.33501,-0.54624 q -0.621117,0.07373 -1.112433,0.01489 -0.491316,-0.05884 -0.953858,-0.342518 -0.775307,-0.475497 -0.917931,-1.211615 -0.139923,-0.740522 0.422029,-1.656795 l 1.958725,-3.193738 0.82817,0.507918 -1.718276,2.801679 q -0.229643,0.374438 -0.359205,0.664766 -0.12686,0.285923 -0.128499,0.545589 6.5e-5,0.266772 0.135453,0.471048 0.135388,0.204276 0.49661,0.425815 0.321577,0.197223 0.803085,0.262173 0.485912,0.06765 0.975699,0.01037 l 2.25321,-3.6739 0.828169,0.507918 z"
         style="font-size:10.58333302px;letter-spacing:0.5291667px"
         id="path837"
         inkscape:connector-curvature="0" />
      <path
         d="m 39.847004,79.140007 -0.04782,-0.01959 q -0.181251,-0.130097 -0.364693,-0.227585 -0.1767,-0.10031 -0.434924,-0.206096 -0.416028,-0.170433 -0.879766,-0.142616 -0.461778,0.02303 -0.939922,0.167807 l -1.553484,3.792072 -0.899003,-0.368292 2.1882,-5.341417 0.899003,0.368292 -0.323235,0.789018 q 0.711886,-0.210966 1.190833,-0.221383 0.485688,-0.01324 0.91128,0.161112 0.234315,0.09599 0.33364,0.153434 0.101285,0.05266 0.297977,0.172331 z"
         style="font-size:10.58333302px;letter-spacing:0.5291667px"
         id="path839"
         inkscape:connector-curvature="0" />
      <path
         d="m 44.799546,82.349457 -4.137529,-0.984181 q -0.123172,0.517819 -0.0594,0.941998 0.06496,0.419152 0.277846,0.730069 0.204023,0.303498 0.532266,0.50906 0.33327,0.206758 0.765624,0.309601 0.573121,0.136326 1.205082,0.04762 0.638184,-0.09254 0.937143,-0.255149 l 0.05027,0.01196 -0.245149,1.030612 q -0.525434,0.08749 -1.055432,0.10484 -0.529998,0.01735 -1.077982,-0.112997 -1.397609,-0.332446 -2.002503,-1.273104 -0.603697,-0.945685 -0.272448,-2.338268 0.327662,-1.3775 1.269272,-2.008726 0.946637,-0.63003 2.173316,-0.338244 1.136187,0.270261 1.591675,1.079768 0.460515,0.810702 0.169924,2.032354 z m -0.747807,-0.942781 q 0.171957,-0.745247 -0.103205,-1.240957 -0.270134,-0.494514 -1.02424,-0.673891 -0.759134,-0.180573 -1.318028,0.159237 -0.553866,0.341006 -0.772047,0.990269 z"
         style="font-size:10.58333302px;letter-spacing:0.5291667px"
         id="path841"
         inkscape:connector-curvature="0" />
      <path
         d="m 56.531347,85.160744 -1.087804,0.07479 -0.899794,-2.087773 -3.320125,0.228263 -0.605604,2.19127 -1.03625,0.07124 2.266498,-7.868608 1.361045,-0.09357 z M 54.16901,82.29295 52.564332,78.616809 51.472697,82.478325 Z"
         style="font-size:10.58333302px;letter-spacing:0.5291667px"
         id="path843"
         inkscape:connector-curvature="0" />
      <path
         d="m 62.644216,83.553047 -0.937584,0.254521 -0.158399,-0.583496 q -0.309191,0.458761 -0.69526,0.772398 -0.38607,0.313636 -0.899746,0.453081 -0.99743,0.270767 -1.794405,-0.337501 -0.791987,-0.609622 -1.161584,-1.971114 -0.192245,-0.708175 -0.143035,-1.315902 0.0542,-0.609081 0.292712,-1.091494 0.236234,-0.471084 0.630924,-0.792415 0.399677,-0.322685 0.883431,-0.454007 0.438869,-0.119138 0.803718,-0.116443 0.363495,-0.0023 0.790331,0.09067 l -0.655257,-2.41378 0.937584,-0.254522 z m -1.309889,-1.116945 -0.867809,-3.196763 q -0.425054,-0.06667 -0.741883,-0.05027 -0.316829,0.0164 -0.670917,0.11252 -0.787969,0.213906 -1.077916,0.88163 -0.289948,0.667724 -0.01647,1.675128 0.269414,0.992443 0.749339,1.419046 0.478571,0.421615 1.226644,0.21854 0.398972,-0.108307 0.760534,-0.393872 0.360208,-0.290552 0.638481,-0.665955 z"
         style="font-size:10.58333302px;letter-spacing:0.5291667px"
         id="path845"
         inkscape:connector-curvature="0" />
      <path
         d="m 66.929836,75.315782 0.398122,6.214202 -0.880092,0.423497 -4.593695,-4.195305 0.949941,-0.457109 3.603181,3.364402 -0.394802,-4.908263 z"
         style="font-size:10.58333302px;letter-spacing:0.5291667px"
         id="path847"
         inkscape:connector-curvature="0" />
      <path
         d="m 68.097526,73.288956 -0.915495,0.601728 -0.553476,-0.842083 0.915495,-0.601728 z m 3.649375,5.665221 -0.811855,0.533608 -3.170425,-4.823625 0.811854,-0.533608 z"
         style="font-size:10.58333302px;letter-spacing:0.5291667px"
         id="path849"
         inkscape:connector-curvature="0" />
      <path
         d="m 75.829681,73.603152 q 0.512422,0.602121 0.34084,1.413138 -0.167646,0.807667 -1.029506,1.541134 -0.487994,0.415296 -0.994404,0.649482 -0.505825,0.226901 -0.898526,0.323602 l -0.706674,-0.830376 0.03936,-0.03349 q 0.574647,-0.0344 1.137576,-0.242043 0.55958,-0.211577 0.953123,-0.546494 0.487994,-0.415296 0.629507,-0.807155 0.141514,-0.391859 -0.146514,-0.730306 -0.221045,-0.259739 -0.484463,-0.266275 -0.263418,-0.0065 -0.768825,0.260723 -0.18756,0.09855 -0.483553,0.269018 -0.292057,0.167121 -0.547524,0.289531 -0.709126,0.338845 -1.20431,0.251336 -0.494598,-0.09479 -0.863006,-0.527692 -0.231092,-0.271545 -0.325199,-0.605383 -0.09017,-0.337187 -0.02268,-0.720339 0.06297,-0.372519 0.310993,-0.766803 0.248606,-0.40157 0.669698,-0.75993 0.393543,-0.334917 0.878686,-0.578146 0.48573,-0.250513 0.87056,-0.340516 l 0.673182,0.791022 -0.03935,0.03349 q -0.460857,0.03256 -0.986777,0.235851 -0.529269,0.199352 -0.918876,0.53092 -0.40535,0.344964 -0.550799,0.740172 -0.148799,0.391272 0.112436,0.698236 0.231093,0.271545 0.517537,0.265271 0.282509,-0.0029 0.726121,-0.231167 0.244833,-0.126931 0.53689,-0.294052 0.295994,-0.170471 0.498709,-0.275131 0.616016,-0.320677 1.139921,-0.271181 0.527254,0.05343 0.935852,0.533554 z"
         style="font-size:10.58333302px;letter-spacing:0.5291667px"
         id="path851"
         inkscape:connector-curvature="0" />
      <path
         d="m 79.195489,67.866891 q 1.084317,0.902507 1.249046,1.980897 0.16473,1.07839 -0.612154,2.011777 -0.783495,0.94133 -1.873872,0.97506 -1.087072,0.02976 -2.171389,-0.872749 -1.084317,-0.902507 -1.252352,-1.976926 -0.168701,-1.081696 0.614794,-2.023026 0.776883,-0.933386 1.871233,-0.96381 1.090377,-0.03373 2.174694,0.868777 z m -0.641342,0.77054 q -0.861893,-0.717377 -1.559938,-0.726887 -0.702017,-0.01282 -1.201206,0.586934 -0.505801,0.607694 -0.365784,1.295726 0.13935,0.680754 1.001243,1.398131 0.83409,0.694237 1.548023,0.71697 0.709961,0.01943 1.212455,-0.584294 0.495883,-0.595779 0.351895,-1.287116 -0.144654,-0.698616 -0.986688,-1.399464 z"
         style="font-size:10.58333302px;letter-spacing:0.5291667px"
         id="path853"
         inkscape:connector-curvature="0" />
      <path
         d="m 80.287779,62.476996 -0.02637,0.04444 q -0.155193,0.160289 -0.278447,0.32751 -0.125061,0.16014 -0.267455,0.400128 -0.229413,0.386648 -0.269679,0.849471 -0.04471,0.460185 0.02862,0.954355 l 3.524272,2.091083 -0.495742,0.835515 -4.964201,-2.945448 0.495742,-0.835515 0.733297,0.435093 q -0.104644,-0.735076 -0.04494,-1.210402 0.0579,-0.482407 0.292582,-0.877943 0.129209,-0.217767 0.200554,-0.307629 0.0669,-0.0925 0.214036,-0.269587 z"
         style="font-size:10.58333302px;letter-spacing:0.5291667px"
         id="path855"
         inkscape:connector-curvature="0" />
    </g>
    <style
       id="style2445"
       type="text/css">
	.st0{fill:#0072C6;}
	.st1{fill:#1B348E;}
	.st2{fill:#7A7A7A;}
	.st3{fill:#3E3E3E;}
	.st4{fill:#00BBF1;}
	.st5{fill:#59B4D9;}
	.st6{fill:#B0B0B0;}
	.st7{fill:#BAC84A;}
	.st8{fill:#6A6A6A;}
	.st9{fill:#FF94D4;}
	.st10{fill:#1A1A1A;}
	.st11{fill:#969696;}
	.st12{fill:#A7A7A7;}
	.st13{fill:#FCD116;}
	.st14{fill:#BD9D10;}
	.st15{fill:#495DA5;}
	.st16{opacity:0.8;fill:#CBEBF5;enable-background:new    ;}
	.st17{fill:#1E1E1E;}
	.st18{fill:#B8D432;}
	.st19{fill:#7FBA00;}
	.st20{opacity:0.4;fill:#B8D432;enable-background:new    ;}
	.st21{fill:#FFFFFF;}
</style>
    <image
       width="72.231247"
       height="37.921406"
       preserveAspectRatio="none"
       xlink:href="file:///C:/Users/salean/Pictures/download%20(1).png"
       id="image3581"
       x="6.5892711"
       y="228.12062" />
  </g>
</svg>
