<?xml version="1.0" encoding="UTF-8" standalone="no"?>
<!-- Created with Inkscape (http://www.inkscape.org/) -->

<svg
   xmlns:osb="http://www.openswatchbook.org/uri/2009/osb"
   xmlns:dc="http://purl.org/dc/elements/1.1/"
   xmlns:cc="http://creativecommons.org/ns#"
   xmlns:rdf="http://www.w3.org/1999/02/22-rdf-syntax-ns#"
   xmlns:svg="http://www.w3.org/2000/svg"
   xmlns="http://www.w3.org/2000/svg"
   xmlns:xlink="http://www.w3.org/1999/xlink"
   xmlns:sodipodi="http://sodipodi.sourceforge.net/DTD/sodipodi-0.dtd"
   xmlns:inkscape="http://www.inkscape.org/namespaces/inkscape"
   width="3.5in"
   height="3.5in"
   viewBox="0 0 88.900001 88.900003"
   version="1.1"
   id="svg8"
   inkscape:version="0.92.3 (2405546, 2018-03-11)"
   sodipodi:docname="cloud-shell.svg"
   inkscape:export-filename="C:\Users\salean\Documents\Sticker Designs\security-centre.png"
   inkscape:export-xdpi="96"
   inkscape:export-ydpi="96">
  <defs
     id="defs2">
    <inkscape:path-effect
       effect="bspline"
       id="path-effect4546"
       is_visible="true"
       weight="33.333333"
       steps="2"
       helper_size="0"
       apply_no_weight="true"
       apply_with_weight="true"
       only_selected="false" />
    <inkscape:path-effect
       effect="skeletal"
       id="path-effect4538"
       is_visible="true"
       pattern="m 0.80180858,11.414469 c 0,-2.7600004 2.24000002,-5.0000004 5.00000002,-5.0000004 2.76,0 5.0000004,2.24 5.0000004,5.0000004 0,2.76 -2.2400004,5 -5.0000004,5 -2.76,0 -5.00000002,-2.24 -5.00000002,-5 z"
       copytype="single_stretched"
       prop_scale="0.26458333"
       scale_y_rel="false"
       spacing="0"
       normal_offset="0"
       tang_offset="0"
       prop_units="false"
       vertical_pattern="false"
       fuse_tolerance="0" />
    <inkscape:path-effect
       effect="bspline"
       id="path-effect4536"
       is_visible="true"
       weight="33.333333"
       steps="2"
       helper_size="0"
       apply_no_weight="true"
       apply_with_weight="true"
       only_selected="false" />
    <inkscape:path-effect
       effect="bspline"
       id="path-effect2440"
       is_visible="true"
       weight="33.333333"
       steps="2"
       helper_size="0"
       apply_no_weight="true"
       apply_with_weight="true"
       only_selected="false" />
    <inkscape:path-effect
       effect="bspline"
       id="path-effect2436"
       is_visible="true"
       weight="33.333333"
       steps="2"
       helper_size="0"
       apply_no_weight="true"
       apply_with_weight="true"
       only_selected="false" />
    <linearGradient
       id="linearGradient2426"
       osb:paint="solid">
      <stop
         style="stop-color:#000000;stop-opacity:1;"
         offset="0"
         id="stop2424" />
    </linearGradient>
    <inkscape:path-effect
       effect="bspline"
       id="path-effect959"
       is_visible="true"
       weight="33.333333"
       steps="2"
       helper_size="0"
       apply_no_weight="true"
       apply_with_weight="true"
       only_selected="false" />
    <inkscape:path-effect
       effect="bspline"
       id="path-effect952"
       is_visible="true"
       weight="33.333333"
       steps="2"
       helper_size="0"
       apply_no_weight="true"
       apply_with_weight="true"
       only_selected="false" />
    <linearGradient
       inkscape:collect="always"
       xlink:href="#linearGradient2426"
       id="linearGradient2428"
       x1="8.8624945"
       y1="69.740303"
       x2="71.387512"
       y2="69.740303"
       gradientUnits="userSpaceOnUse" />
  </defs>
  <sodipodi:namedview
     id="base"
     pagecolor="#ffffff"
     bordercolor="#666666"
     borderopacity="1.0"
     inkscape:pageopacity="0.0"
     inkscape:pageshadow="2"
     inkscape:zoom="0.4203966"
     inkscape:cx="-187.71227"
     inkscape:cy="987.85714"
     inkscape:document-units="mm"
     inkscape:current-layer="layer1"
     showgrid="false"
     inkscape:window-width="1920"
     inkscape:window-height="1017"
     inkscape:window-x="2992"
     inkscape:window-y="325"
     inkscape:window-maximized="1"
     showguides="false"
     units="in" />
  <metadata
     id="metadata5">
    <rdf:RDF>
      <cc:Work
         rdf:about="">
        <dc:format>image/svg+xml</dc:format>
        <dc:type
           rdf:resource="http://purl.org/dc/dcmitype/StillImage" />
        <dc:title></dc:title>
      </cc:Work>
    </rdf:RDF>
  </metadata>
  <g
     inkscape:label="Layer 1"
     inkscape:groupmode="layer"
     id="layer1"
     transform="translate(0,-208.09998)">
    <path
       transform="matrix(-0.78594262,0.61829945,0.61829945,0.78594262,0,0)"
       style="fill:#ffffff;fill-opacity:1;stroke:#000000;stroke-width:0.89449996;stroke-miterlimit:4;stroke-dasharray:none;stroke-opacity:0.09547741"
       d="m 159.7923,225.94304 a 38.099998,38.099998 0 0 1 -38.09999,38.1 38.099998,38.099998 0 0 1 -38.100002,-38.1 38.099998,38.099998 0 0 1 38.100002,-38.1 38.099998,38.099998 0 0 1 38.09999,38.1 z"
       id="path815" />
    <style
       id="style819"
       type="text/css">
	.st0{fill:#0072C6;}
	.st1{fill:#1B348E;}
	.st2{fill:#7A7A7A;}
	.st3{fill:#3E3E3E;}
	.st4{fill:#00BBF1;}
	.st5{fill:#59B4D9;}
	.st6{fill:#B0B0B0;}
	.st7{fill:#BAC84A;}
	.st8{fill:#6A6A6A;}
	.st9{fill:#FF94D4;}
	.st10{fill:#1A1A1A;}
	.st11{fill:#969696;}
	.st12{fill:#A7A7A7;}
	.st13{fill:#FCD116;}
	.st14{fill:#BD9D10;}
	.st15{fill:#495DA5;}
	.st16{opacity:0.8;fill:#CBEBF5;enable-background:new    ;}
	.st17{fill:#1E1E1E;}
	.st18{fill:#B8D432;}
	.st19{fill:#7FBA00;}
	.st20{opacity:0.4;fill:#B8D432;enable-background:new    ;}
	.st21{fill:#FFFFFF;}
</style>
    <text
       xml:space="preserve"
       style="font-style:normal;font-weight:normal;font-size:14.11111069px;line-height:1.25;font-family:sans-serif;letter-spacing:0px;word-spacing:0px;fill:#000000;fill-opacity:1;stroke:none;stroke-width:0.26458332"
       id="text942"><textPath
         xlink:href="#path950"
         id="textPath954"
         style="font-size:7.05555534px"></textPath></text>
    <path
       style="fill:none;stroke:#000000;stroke-width:0.26458332px;stroke-linecap:butt;stroke-linejoin:miter;stroke-opacity:0"
       d="m 8.5526248,274.8562 c 10.9581332,6.23634 21.9161842,12.47263 32.2061352,12.47253 10.289952,-1e-4 19.911731,-6.23644 29.533124,-12.47253"
       id="path957" />
    <style
       id="style2445"
       type="text/css">
	.st0{fill:#0072C6;}
	.st1{fill:#1B348E;}
	.st2{fill:#7A7A7A;}
	.st3{fill:#3E3E3E;}
	.st4{fill:#00BBF1;}
	.st5{fill:#59B4D9;}
	.st6{fill:#B0B0B0;}
	.st7{fill:#BAC84A;}
	.st8{fill:#6A6A6A;}
	.st9{fill:#FF94D4;}
	.st10{fill:#1A1A1A;}
	.st11{fill:#969696;}
	.st12{fill:#A7A7A7;}
	.st13{fill:#FCD116;}
	.st14{fill:#BD9D10;}
	.st15{fill:#495DA5;}
	.st16{opacity:0.8;fill:#CBEBF5;enable-background:new    ;}
	.st17{fill:#1E1E1E;}
	.st18{fill:#B8D432;}
	.st19{fill:#7FBA00;}
	.st20{opacity:0.4;fill:#B8D432;enable-background:new    ;}
	.st21{fill:#FFFFFF;}
</style>
    <image
       width="63.5"
       height="33.337502"
       preserveAspectRatio="none"
       xlink:href="file:///C:/Users/salean/Pictures/download.png"
       id="image3416"
       x="14.621264"
       y="226.91692" />
    <text
       xml:space="preserve"
       style="font-style:normal;font-weight:normal;font-size:14.11111069px;line-height:1.25;font-family:sans-serif;letter-spacing:0px;word-spacing:0px;fill:#000000;fill-opacity:1;stroke:none;stroke-width:0.26458332"
       id="text4542"><textPath
         xlink:href="#path4544"
         id="textPath4548"
         style="font-size:11.28888893px"></textPath></text>
    <g
       aria-label="Cloud Shell"
       style="font-style:normal;font-weight:normal;font-size:14.11111069px;line-height:1.25;font-family:sans-serif;letter-spacing:0px;word-spacing:0px;fill:#000000;fill-opacity:1;stroke:none;stroke-width:0.26458332"
       id="text4581"
       transform="translate(-0.84953831,200.16051)">
      <path
         d="m 19.930719,72.155917 q -0.325895,-0.131561 -0.598239,-0.233609 -0.268243,-0.09787 -0.65967,-0.304612 -0.329593,-0.177153 -0.679206,-0.424906 -0.349693,-0.239471 -0.702358,-0.599073 -0.664322,-0.677391 -1.021558,-1.418055 -0.348953,-0.740583 -0.345229,-1.548136 0.0036,-0.790988 0.392611,-1.615495 0.393229,-0.828607 1.204426,-1.624153 0.769382,-0.754539 1.588928,-1.131714 0.819546,-0.377175 1.639562,-0.37747 0.79517,-5.38e-4 1.557924,0.350635 0.766854,0.355354 1.439377,1.041108 0.492091,0.501771 0.858819,1.118283 0.370829,0.620693 0.664295,1.530536 l -0.982636,0.963677 -0.06151,-0.06272 Q 24.152545,66.88352 23.852886,66.184832 23.553221,65.486144 22.987318,64.909108 22.523933,64.436606 21.996051,64.207824 21.476452,63.979123 20.863329,63.998 q -0.596559,0.01904 -1.237352,0.327549 -0.632511,0.308591 -1.259725,0.923704 -0.656484,0.643818 -0.956754,1.282823 -0.296169,0.643187 -0.318299,1.214496 -0.02237,0.596155 0.208465,1.132655 0.239121,0.53658 0.665599,0.971449 0.586408,0.597944 1.303892,0.919685 0.717484,0.321741 1.574246,0.375643 l 0.05741,0.05854 z"
         style="font-size:11.99444485px;fill:#e7e7e7;fill-opacity:1;stroke:#000000;stroke-width:0.26458332;stroke-opacity:1"
         id="path4610"
         inkscape:connector-curvature="0" />
      <path
         d="m 21.711242,74.117382 -0.882237,-0.658767 5.452347,-7.301922 0.882237,0.658766 z"
         style="font-size:11.99444485px;fill:#e7e7e7;fill-opacity:1;stroke:#000000;stroke-width:0.26458332;stroke-opacity:1"
         id="path4612"
         inkscape:connector-curvature="0" />
      <path
         d="m 29.940424,75.236481 q -0.768557,1.402036 -1.932355,1.819338 -1.163798,0.417303 -2.370678,-0.244275 -1.217151,-0.667209 -1.491338,-1.872774 -0.269051,-1.202751 0.499506,-2.604786 0.768556,-1.402035 1.927219,-1.822153 1.166613,-0.422438 2.383764,0.24477 1.20688,0.661578 1.478252,1.87228 0.274187,1.205565 -0.49437,2.6076 z m -0.996318,-0.546153 q 0.610904,-1.114438 0.469972,-1.892977 -0.138118,-0.783674 -0.913602,-1.208773 -0.785756,-0.43073 -1.520701,-0.125644 -0.726994,0.302765 -1.337898,1.417204 -0.591198,1.078488 -0.461526,1.877569 0.132487,0.793946 0.913107,1.22186 0.770349,0.422284 1.508109,0.112062 0.745711,-0.312541 1.342539,-1.401301 z"
         style="font-size:11.99444485px;fill:#e7e7e7;fill-opacity:1;stroke:#000000;stroke-width:0.26458332;stroke-opacity:1"
         id="path4614"
         inkscape:connector-curvature="0" />
      <path
         d="m 35.140416,80.384124 -1.049962,-0.331506 0.218653,-0.692529 q -0.662816,0.251352 -1.219236,0.321338 -0.556419,0.06999 -1.142834,-0.115163 -0.982944,-0.310346 -1.341588,-1.080737 -0.356881,-0.775976 0.0099,-1.937636 l 1.278415,-4.049056 1.049962,0.331506 -1.121478,3.551999 q -0.149883,0.474717 -0.212767,0.829503 -0.06112,0.349201 0.0083,0.635198 0.07321,0.293346 0.27809,0.480867 0.204884,0.187522 0.662847,0.332115 0.407698,0.128723 0.955006,0.06814 0.552893,-0.05882 1.075798,-0.256077 l 1.470617,-4.65781 1.049962,0.331506 z"
         style="font-size:11.99444485px;fill:#e7e7e7;fill-opacity:1;stroke:#000000;stroke-width:0.26458332;stroke-opacity:1"
         id="path4616"
         inkscape:connector-curvature="0" />
      <path
         d="m 42.550426,81.40436 -1.094513,-0.119825 0.07457,-0.681159 q -0.516188,0.355904 -1.053371,0.526869 -0.537182,0.170965 -1.136836,0.105316 -1.164375,-0.127474 -1.753202,-1.099252 -0.583005,-0.971141 -0.409004,-2.560514 0.09051,-0.826707 0.39413,-1.44744 0.309444,-0.620097 0.760869,-1.030225 0.444327,-0.399121 0.993791,-0.574633 0.555285,-0.174875 1.120008,-0.11305 0.512325,0.05609 0.896103,0.210045 0.384415,0.148135 0.796198,0.422991 l 0.308486,-2.817789 1.094513,0.119825 z m -0.919237,-1.720841 0.408553,-3.731824 q -0.420793,-0.246383 -0.761819,-0.36031 -0.341027,-0.113926 -0.754381,-0.159179 -0.919856,-0.100705 -1.502292,0.483614 -0.582436,0.584318 -0.711184,1.760337 -0.126836,1.158554 0.202765,1.80737 0.330239,0.642994 1.203521,0.738599 0.46575,0.05099 0.965452,-0.100512 0.500339,-0.157323 0.949385,-0.438095 z"
         style="font-size:11.99444485px;fill:#e7e7e7;fill-opacity:1;stroke:#000000;stroke-width:0.26458332;stroke-opacity:1"
         id="path4618"
         inkscape:connector-curvature="0" />
      <path
         d="m 54.727454,77.398425 q 0.10455,0.498688 -0.02832,1.035182 -0.127135,0.535293 -0.474673,0.96121 -0.381654,0.462988 -0.951721,0.797926 -0.564335,0.333737 -1.424142,0.513995 -0.922859,0.193477 -1.698345,0.176538 -0.769754,-0.01814 -1.603017,-0.196503 l -0.298028,-1.421547 0.08025,-0.01682 q 0.760683,0.403018 1.670314,0.517497 0.909631,0.114479 1.654797,-0.04174 1.054696,-0.221117 1.556446,-0.739204 0.507482,-0.519289 0.369284,-1.178474 -0.11897,-0.567473 -0.456321,-0.777995 -0.33162,-0.211723 -0.930337,-0.241786 -0.453938,-0.02451 -0.973981,0.0067 -0.51431,0.03003 -1.100085,0.03316 -1.185418,-0.0028 -1.857068,-0.466376 -0.66712,-0.470505 -0.863001,-1.404829 -0.224722,-1.071892 0.537936,-1.943878 0.761457,-0.877718 2.154344,-1.169736 0.899932,-0.188671 1.686882,-0.174135 0.786949,0.01454 1.418762,0.145372 l 0.281203,1.341299 -0.08025,0.01682 Q 52.824635,72.86054 51.9714,72.758173 q -0.848705,-0.1093 -1.679852,0.06495 -0.911395,0.191074 -1.38809,0.685956 -0.470963,0.493681 -0.345984,1.089814 0.11176,0.53308 0.45059,0.779196 0.338829,0.246116 1.066055,0.261205 0.383675,0.0033 1.084091,-0.02382 0.700416,-0.02716 1.19568,-0.0053 1.004396,0.05272 1.592841,0.461932 0.588445,0.409207 0.780721,1.326335 z"
         style="font-size:11.99444485px;fill:#e7e7e7;fill-opacity:1;stroke:#000000;stroke-width:0.26458332;stroke-opacity:1"
         id="path4620"
         inkscape:connector-curvature="0" />
      <path
         d="m 61.929186,77.011127 -1.007519,0.444097 -1.502371,-3.408415 q -0.181891,-0.412654 -0.388392,-0.750457 -0.208863,-0.343162 -0.427247,-0.490116 -0.233191,-0.166029 -0.532316,-0.162187 -0.301486,-0.0015 -0.703422,0.175648 -0.412654,0.181891 -0.773057,0.583965 -0.360404,0.402074 -0.633687,0.900154 l 1.97009,4.469526 -1.007519,0.444097 -3.675612,-8.338827 1.007519,-0.444097 1.329929,3.017197 q 0.299163,-0.599092 0.706071,-1.040866 0.406909,-0.441773 0.937464,-0.675633 0.970005,-0.427561 1.736605,-0.06782 0.766601,0.359735 1.250856,1.45836 z"
         style="font-size:11.99444485px;fill:#e7e7e7;fill-opacity:1;stroke:#000000;stroke-width:0.26458332;stroke-opacity:1"
         id="path4622"
         inkscape:connector-curvature="0" />
      <path
         d="m 66.46297,70.220573 -3.954767,2.755455 q 0.34485,0.494947 0.751615,0.761165 0.403417,0.261414 0.826959,0.316079 0.410583,0.05655 0.832113,-0.06583 0.426336,-0.125733 0.839592,-0.413666 0.547805,-0.381679 0.949753,-0.982945 0.403405,-0.60942 0.49155,-0.984908 l 0.04805,-0.03348 0.686353,0.985088 q -0.322582,0.510278 -0.70791,0.97148 -0.385327,0.461201 -0.909106,0.82614 -1.335875,0.930761 -2.587713,0.732263 -1.255185,-0.203304 -2.182598,-1.534374 -0.917369,-1.316654 -0.740416,-2.58917 0.181758,-1.275864 1.354253,-2.092791 1.086,-0.756662 2.114191,-0.530825 1.032997,0.222489 1.846576,1.390179 z m -1.361492,-0.07927 q -0.500318,-0.707837 -1.127104,-0.849311 -0.62198,-0.144821 -1.342776,0.357388 -0.725602,0.505558 -0.860102,1.234556 -0.129695,0.725649 0.254586,1.400127 z"
         style="font-size:11.99444485px;fill:#e7e7e7;fill-opacity:1;stroke:#000000;stroke-width:0.26458332;stroke-opacity:1"
         id="path4624"
         inkscape:connector-curvature="0" />
      <path
         d="m 70.289146,70.881926 -0.810165,0.745621 -6.171202,-6.705403 0.810164,-0.745621 z"
         style="font-size:11.99444485px;fill:#e7e7e7;fill-opacity:1;stroke:#000000;stroke-width:0.26458332;stroke-opacity:1"
         id="path4626"
         inkscape:connector-curvature="0" />
      <path
         d="M 72.586742,68.509766 71.844054,69.322619 65.116392,63.17569 65.85908,62.362837 Z"
         style="font-size:11.99444485px;fill:#e7e7e7;fill-opacity:1;stroke:#000000;stroke-width:0.26458332;stroke-opacity:1"
         id="path4628"
         inkscape:connector-curvature="0" />
    </g>
  </g>
</svg>
