<?xml version="1.0" encoding="UTF-8" standalone="no"?>
<!-- Created with Inkscape (http://www.inkscape.org/) -->

<svg
   xmlns:osb="http://www.openswatchbook.org/uri/2009/osb"
   xmlns:dc="http://purl.org/dc/elements/1.1/"
   xmlns:cc="http://creativecommons.org/ns#"
   xmlns:rdf="http://www.w3.org/1999/02/22-rdf-syntax-ns#"
   xmlns:svg="http://www.w3.org/2000/svg"
   xmlns="http://www.w3.org/2000/svg"
   xmlns:xlink="http://www.w3.org/1999/xlink"
   xmlns:sodipodi="http://sodipodi.sourceforge.net/DTD/sodipodi-0.dtd"
   xmlns:inkscape="http://www.inkscape.org/namespaces/inkscape"
   width="3.5in"
   height="3.5in"
   viewBox="0 0 88.900001 88.900003"
   version="1.1"
   id="svg8"
   inkscape:version="0.92.3 (2405546, 2018-03-11)"
   sodipodi:docname="security-centre.svg">
  <defs
     id="defs2">
    <inkscape:path-effect
       effect="bspline"
       id="path-effect2440"
       is_visible="true"
       weight="33.333333"
       steps="2"
       helper_size="0"
       apply_no_weight="true"
       apply_with_weight="true"
       only_selected="false" />
    <inkscape:path-effect
       effect="bspline"
       id="path-effect2436"
       is_visible="true"
       weight="33.333333"
       steps="2"
       helper_size="0"
       apply_no_weight="true"
       apply_with_weight="true"
       only_selected="false" />
    <linearGradient
       id="linearGradient2426"
       osb:paint="solid">
      <stop
         style="stop-color:#000000;stop-opacity:1;"
         offset="0"
         id="stop2424" />
    </linearGradient>
    <inkscape:path-effect
       effect="bspline"
       id="path-effect959"
       is_visible="true"
       weight="33.333333"
       steps="2"
       helper_size="0"
       apply_no_weight="true"
       apply_with_weight="true"
       only_selected="false" />
    <inkscape:path-effect
       effect="bspline"
       id="path-effect952"
       is_visible="true"
       weight="33.333333"
       steps="2"
       helper_size="0"
       apply_no_weight="true"
       apply_with_weight="true"
       only_selected="false" />
    <linearGradient
       inkscape:collect="always"
       xlink:href="#linearGradient2426"
       id="linearGradient2428"
       x1="8.8624945"
       y1="69.740303"
       x2="71.387512"
       y2="69.740303"
       gradientUnits="userSpaceOnUse" />
  </defs>
  <sodipodi:namedview
     id="base"
     pagecolor="#ffffff"
     bordercolor="#666666"
     borderopacity="1.0"
     inkscape:pageopacity="0.0"
     inkscape:pageshadow="2"
     inkscape:zoom="0.37610985"
     inkscape:cx="200"
     inkscape:cy="955.71428"
     inkscape:document-units="mm"
     inkscape:current-layer="layer1"
     showgrid="false"
     inkscape:window-width="1920"
     inkscape:window-height="1017"
     inkscape:window-x="2992"
     inkscape:window-y="325"
     inkscape:window-maximized="1"
     units="in" />
  <metadata
     id="metadata5">
    <rdf:RDF>
      <cc:Work
         rdf:about="">
        <dc:format>image/svg+xml</dc:format>
        <dc:type
           rdf:resource="http://purl.org/dc/dcmitype/StillImage" />
        <dc:title></dc:title>
      </cc:Work>
    </rdf:RDF>
  </metadata>
  <g
     inkscape:label="Layer 1"
     inkscape:groupmode="layer"
     id="layer1"
     transform="translate(0,-208.09998)">
    <circle
       style="fill:#ffffff;fill-opacity:1;stroke:#000000;stroke-width:0.89449996;stroke-miterlimit:4;stroke-dasharray:none;stroke-opacity:0.09547741"
       id="path815"
       cx="7.3165574"
       cy="257.34085"
       r="38.099998"
       transform="matrix(-0.97965089,0.20070906,0.20070906,0.97965089,0,0)" />
    <style
       id="style819"
       type="text/css">
	.st0{fill:#0072C6;}
	.st1{fill:#1B348E;}
	.st2{fill:#7A7A7A;}
	.st3{fill:#3E3E3E;}
	.st4{fill:#00BBF1;}
	.st5{fill:#59B4D9;}
	.st6{fill:#B0B0B0;}
	.st7{fill:#BAC84A;}
	.st8{fill:#6A6A6A;}
	.st9{fill:#FF94D4;}
	.st10{fill:#1A1A1A;}
	.st11{fill:#969696;}
	.st12{fill:#A7A7A7;}
	.st13{fill:#FCD116;}
	.st14{fill:#BD9D10;}
	.st15{fill:#495DA5;}
	.st16{opacity:0.8;fill:#CBEBF5;enable-background:new    ;}
	.st17{fill:#1E1E1E;}
	.st18{fill:#B8D432;}
	.st19{fill:#7FBA00;}
	.st20{opacity:0.4;fill:#B8D432;enable-background:new    ;}
	.st21{fill:#FFFFFF;}
</style>
    <text
       xml:space="preserve"
       style="font-style:normal;font-weight:normal;font-size:14.11111069px;line-height:1.25;font-family:sans-serif;letter-spacing:0px;word-spacing:0px;fill:#000000;fill-opacity:1;stroke:none;stroke-width:0.26458332"
       id="text942"><textPath
         xlink:href="#path950"
         id="textPath954"
         style="font-size:7.05555534px"></textPath></text>
    <style
       id="style2445"
       type="text/css">
	.st0{fill:#0072C6;}
	.st1{fill:#1B348E;}
	.st2{fill:#7A7A7A;}
	.st3{fill:#3E3E3E;}
	.st4{fill:#00BBF1;}
	.st5{fill:#59B4D9;}
	.st6{fill:#B0B0B0;}
	.st7{fill:#BAC84A;}
	.st8{fill:#6A6A6A;}
	.st9{fill:#FF94D4;}
	.st10{fill:#1A1A1A;}
	.st11{fill:#969696;}
	.st12{fill:#A7A7A7;}
	.st13{fill:#FCD116;}
	.st14{fill:#BD9D10;}
	.st15{fill:#495DA5;}
	.st16{opacity:0.8;fill:#CBEBF5;enable-background:new    ;}
	.st17{fill:#1E1E1E;}
	.st18{fill:#B8D432;}
	.st19{fill:#7FBA00;}
	.st20{opacity:0.4;fill:#B8D432;enable-background:new    ;}
	.st21{fill:#FFFFFF;}
</style>
    <path
       id="path2447"
       d="m 21.193821,256.41222 c -2.672291,0 -4.418541,-0.58209 -5.55625,-1.19063 -2.06375,-1.13771 -3.148541,-3.12208 -3.148541,-5.68854 h 1.561041 c 0,2.03729 0.767292,3.43958 2.354792,4.33917 2.169583,1.21708 5.820833,1.32291 10.212917,0.3175 4.233333,-0.9525 8.89,-2.88396 12.779375,-5.29167 l 0.820208,1.32292 c -4.021667,2.48708 -8.863542,4.49791 -13.255625,5.50333 -1.878542,0.42333 -3.81,0.68792 -5.767917,0.68792 z"
       class="st0"
       inkscape:connector-curvature="0"
       style="fill:#0072c6;stroke-width:0.26458332" />
    <path
       id="path2449"
       d="m 21.193821,256.41222 c -0.211666,0 -0.396875,0 -0.608541,0 l 0.05292,-1.56105 c 5.185834,0.18521 12.726459,-2.2225 18.758959,-5.97958 l 0.820204,1.32292 c -6.138333,3.81 -13.520208,6.21771 -19.023542,6.21771 z"
       class="st1"
       inkscape:connector-curvature="0"
       style="fill:#1b348e;stroke-width:0.26458332" />
    <path
       id="path2451"
       d="M 27.146946,258.92576 H 22.33153 c 0.555625,2.03729 -0.211667,2.35479 -3.624792,2.35479 v 1.05833 h 11.58875 v -1.05833 c -3.386667,0 -3.704167,-0.29104 -3.148542,-2.35479 z"
       class="st2"
       inkscape:connector-curvature="0"
       style="fill:#7a7a7a;stroke-width:0.26458332" />
    <path
       id="path2453"
       d="M 32.33278,245.98763 H 16.61653 c -0.529167,0.0265 -0.9525,0.44979 -0.9525,1.00542 v 10.92729 c 0,0.52917 0.423333,0.97896 0.9525,1.00542 h 15.71625 c 0.529166,0 1.058333,-0.44979 1.058333,-1.00542 v -10.92729 c 0.02646,-0.52917 -0.502708,-1.00542 -1.058333,-1.00542 z m -0.264584,1.37584 v 10.18645 H 17.013405 v -10.21291 l 15.054791,-0.0265 z"
       class="st3"
       inkscape:connector-curvature="0"
       style="fill:#3e3e3e;stroke-width:0.26458332" />
    <polygon
       id="polygon2455"
       points="108.2,146.5 51.5,146.5 51.5,107.8 108.4,107.8 108.2,107.8 "
       class="st4"
       transform="matrix(0.26458333,0,0,0.26458333,3.3873634,218.81492)"
       style="fill:#00bbf1" />
    <path
       id="path2457"
       d="m 17.013405,257.57638 v 0 -10.23937 H 30.74528 l 1.5875,-1.34938 H 16.61653 c -0.529167,0.0265 -0.9525,0.44979 -0.9525,1.00542 v 10.92729 c 0,0.52917 0.423333,0.97896 0.9525,1.00542 h 0.396875 l 1.640416,-1.34938 z"
       class="st2"
       inkscape:connector-curvature="0"
       style="fill:#7a7a7a;stroke-width:0.26458332" />
    <polygon
       id="polygon2459"
       points="51.5,107.8 103.4,107.8 51.5,107.8 51.5,146.5 "
       class="st5"
       transform="matrix(0.26458333,0,0,0.26458333,3.3873634,218.81492)"
       style="fill:#59b4d9" />
    <circle
       id="circle2463"
       r="0.238125"
       cy="246.75493"
       cx="24.448196"
       class="st7"
       style="fill:#bac84a;stroke-width:0.26458332" />
    <path
       id="path2467"
       d="m 39.714655,256.30638 0.185208,0.0529 c 0.05292,0 0.05292,0.0529 0.05292,0.10583 v 0 l -0.185209,0.66146 v 0 l -0.343961,-0.10583 v 0 l 0.185208,-0.66146 c 0.02646,-0.0265 0.07937,-0.0529 0.105834,-0.0529 0,0 0,0 0,0 z"
       class="st9"
       inkscape:connector-curvature="0"
       style="fill:#ff94d4;stroke-width:0.26458332" />
    <rect
       id="rect2469"
       height="0.34394926"
       width="0.50269508"
       y="111.03881"
       x="-235.12791"
       transform="rotate(-73.440702)"
       class="st10"
       style="fill:#1a1a1a;stroke-width:0.26457635" />
    <rect
       id="rect2471"
       height="0.34394926"
       width="0.47623742"
       y="111.04771"
       x="-235.13895"
       transform="rotate(-73.440702)"
       class="st11"
       style="fill:#969696;stroke-width:0.26457635" />
    <rect
       id="rect2473"
       height="0.21166109"
       width="0.47623742"
       y="111.04987"
       x="-235.14922"
       transform="rotate(-73.440702)"
       class="st12"
       style="fill:#a7a7a7;stroke-width:0.26457635" />
    <rect
       id="rect2475"
       height="0.34394926"
       width="5.6354761"
       y="111.05167"
       x="-240.4267"
       transform="rotate(-73.440702)"
       class="st13"
       style="fill:#fcd116;stroke-width:0.26457635" />
    <rect
       id="rect2477"
       height="0.15874583"
       width="5.6354761"
       y="111.26091"
       x="-240.44865"
       transform="rotate(-73.440702)"
       class="st14"
       style="fill:#bd9d10;stroke-width:0.26457635" />
    <polygon
       id="polygon2479"
       points="125.5,164.6 124.1,151.1 135.8,151.1 134,164.6 "
       class="st1"
       transform="matrix(0.26458333,0,0,0.26458333,3.3873634,218.81492)"
       style="fill:#1b348e" />
    <polygon
       id="polygon2481"
       points="125.5,164.6 124.1,151.1 126.4,151.1 134,164.6 "
       class="st15"
       transform="matrix(0.26458333,0,0,0.26458333,3.3873634,218.81492)"
       style="fill:#495da5" />
    <path
       id="path2483"
       d="m 40.217363,250.19451 -0.820208,-1.32292 c 4.021666,-2.48708 8.863541,-4.49792 13.229166,-5.50333 6.138334,-1.40229 9.551459,-0.50271 11.324167,0.47625 2.06375,1.13771 3.148542,3.12208 3.148542,5.68854 h -1.534584 c 0,-2.03729 -0.767291,-3.43958 -2.354791,-4.33917 -2.169584,-1.21708 -5.820834,-1.32291 -10.212917,-0.3175 -4.233333,0.97896 -8.89,2.91042 -12.779375,5.31813 z"
       class="st0"
       inkscape:connector-curvature="0"
       style="fill:#0072c6;stroke-width:0.26458332" />
    <path
       id="path2485"
       d="M 40.323196,250.37972 39.31778,248.7393 c 7.381875,-4.57729 16.166041,-6.90563 21.695833,-5.84729 l -2.434167,1.34937 c -5.08,0.0794 -12.461875,2.54 -18.25625,6.13834 z"
       class="st1"
       inkscape:connector-curvature="0"
       style="fill:#1b348e;stroke-width:0.26458332" />
    <path
       id="path2487"
       d="m 43.180696,238.31472 h 0.05292 c 1.53458,-0.26459 2.539997,-1.7198 2.275414,-3.25438 -0.238125,-1.34937 -1.402292,-2.32833 -2.751667,-2.32833 h -0.02646 c 0.02646,-0.18521 0.02646,-0.37042 0.02646,-0.52917 0,-3.36021 -2.725208,-6.08542 -6.085417,-6.08542 -2.619375,0 -4.947708,1.66688 -5.767916,4.15396 -2.169584,-0.74083 -4.524375,0.39688 -5.291667,2.56646 -0.767292,2.16958 0.396875,4.52438 2.566458,5.29167 0.449792,0.15875 0.899584,0.23812 1.375834,0.23812 h 13.440833 v 0 c 0.05292,-0.0265 0.132292,-0.0529 0.185208,-0.0529 z"
       class="st16"
       inkscape:connector-curvature="0"
       style="opacity:0.8;fill:#cbebf5;stroke-width:0.26458332;enable-background:new" />
    <path
       id="path2489"
       d="m 43.180696,257.25888 v -27.54312 c 0,-1.37584 1.11125,-2.51354 2.513542,-2.51354 0,0 0,0 0.02646,0 h 10.00125 c 1.375834,0 2.513542,1.11125 2.513542,2.51354 0,0 0,0 0,0 v 27.54312 z"
       class="st3"
       inkscape:connector-curvature="0"
       style="fill:#3e3e3e;stroke-width:0.26458332" />
    <rect
       id="rect2491"
       height="1.2435416"
       width="10.027709"
       y="244.74409"
       x="45.694237"
       class="st17"
       style="fill:#1e1e1e;stroke-width:0.26458332" />
    <rect
       id="rect2493"
       height="1.2435416"
       width="10.027709"
       y="248.50117"
       x="45.694237"
       class="st17"
       style="fill:#1e1e1e;stroke-width:0.26458332" />
    <rect
       id="rect2495"
       height="1.2435416"
       width="10.027709"
       y="252.25826"
       x="45.694237"
       class="st17"
       style="fill:#1e1e1e;stroke-width:0.26458332" />
    <rect
       id="rect2497"
       height="1.2435416"
       width="10.027709"
       y="230.98576"
       x="45.694237"
       class="st17"
       style="fill:#1e1e1e;stroke-width:0.26458332" />
    <rect
       id="rect2499"
       height="1.2435416"
       width="1.2435416"
       y="244.74409"
       x="45.694237"
       class="st18"
       style="fill:#b8d432;stroke-width:0.26458332" />
    <rect
       id="rect2501"
       height="1.2435416"
       width="1.2435416"
       y="248.50117"
       x="45.694237"
       class="st18"
       style="fill:#b8d432;stroke-width:0.26458332" />
    <rect
       id="rect2503"
       height="1.2435416"
       width="1.2435416"
       y="252.25826"
       x="45.694237"
       class="st18"
       style="fill:#b8d432;stroke-width:0.26458332" />
    <rect
       id="rect2505"
       height="1.2435416"
       width="1.2435416"
       y="230.98576"
       x="45.694237"
       class="st18"
       style="fill:#b8d432;stroke-width:0.26458332" />
    <path
       id="path2507"
       d="m 60.854863,240.37847 v 0 c 0.846667,-0.15875 1.402292,-0.9525 1.243542,-1.77271 -0.132292,-0.71438 -0.740834,-1.24354 -1.481667,-1.24354 h -0.02646 c 0,-0.10584 0.02646,-0.18521 0.02646,-0.29105 0,-1.79916 -1.455208,-3.28083 -3.254375,-3.30729 -1.42875,0 -2.69875,0.89959 -3.148542,2.24896 -1.164166,-0.39687 -2.434166,0.21167 -2.8575,1.37583 -0.396875,1.16417 0.211667,2.43417 1.375834,2.8575 0.238125,0.0794 0.47625,0.1323 0.740833,0.1323 h 7.249583 v 0 z"
       class="st16"
       inkscape:connector-curvature="0"
       style="opacity:0.8;fill:#cbebf5;stroke-width:0.26458332;enable-background:new" />
    <path
       id="path2509"
       d="m 69.48028,255.4068 c -0.02646,0 -0.05292,0 -0.05292,0 0.529167,-1.905 -0.582083,-3.86292 -2.460625,-4.39208 -1.190622,-0.34396 -2.460622,-0.0265 -3.386664,0.8202 -0.687916,-2.48708 -3.254375,-3.96875 -5.741458,-3.30729 -1.878542,0.50271 -3.254375,2.14313 -3.439583,4.10104 l -0.105834,-0.0265 c -1.455208,-1.32291 -3.704166,-1.24354 -5.027083,0.18521 -0.343958,0.37042 -0.608542,0.82021 -0.767292,1.29646 -1.27,-0.42333 -2.645833,0.23813 -3.095625,1.50813 -0.423333,1.27 0.238125,2.64583 1.508125,3.09562 0.264584,0.0794 0.529167,0.13229 0.79375,0.13229 h 5.688542 c 0.15875,0.0265 0.3175,0.0265 0.47625,0.0265 h 15.636875 c 0.9525,0.0265 1.74625,-0.71437 1.772708,-1.66687 0.02646,-0.9525 -0.714375,-1.74625 -1.666875,-1.77271 -0.05292,0 -0.105833,0 -0.132291,0 z"
       class="st16"
       inkscape:connector-curvature="0"
       style="opacity:0.8;fill:#cbebf5;stroke-width:0.26458332;enable-background:new" />
    <path
       id="path2511"
       d="m 58.420696,256.41222 c -1.957916,-0.0265 -3.889375,-0.26459 -5.767916,-0.71438 -4.392084,-1.00542 -9.2075,-2.98979 -13.255625,-5.50333 l 0.820208,-1.32292 c 3.889375,2.40771 8.546042,4.36563 12.779375,5.29167 4.418542,1.00541 8.043333,0.89958 10.212917,-0.3175 1.5875,-0.87313 2.354791,-2.30188 2.354791,-4.33917 h 1.561042 c 0,2.56646 -1.084792,4.52438 -3.148542,5.68854 -1.11125,0.66146 -2.883958,1.21709 -5.55625,1.21709 z"
       class="st0"
       inkscape:connector-curvature="0"
       style="fill:#0072c6;stroke-width:0.26458332" />
    <path
       id="path2513"
       d="m 39.397155,250.19451 c -3.889375,-2.40771 -8.546042,-4.33917 -12.779375,-5.29167 -4.418542,-1.00542 -8.069792,-0.89958 -10.212917,0.3175 -1.5875,0.87313 -2.354792,2.30188 -2.354792,4.33917 H 12.48903 c 0,-2.56646 1.084791,-4.52438 3.148541,-5.68854 1.772709,-0.97896 5.185834,-1.87855 11.324167,-0.47625 4.392083,0.97895 9.2075,2.98979 13.229167,5.50333 z"
       class="st0"
       inkscape:connector-curvature="0"
       style="fill:#0072c6;stroke-width:0.26458332" />
    <path
       id="path2515"
       d="m 44.979863,237.17701 v 0 c -3.730625,-0.42334 -4.365625,-2.01084 -4.365625,-2.01084 0,0 -0.846667,2.11667 -6.217708,2.11667 v 8.67833 c 0,1.05834 0.582083,2.0373 1.402291,2.88396 v 0 c 1.825625,1.95792 4.815417,3.25438 4.815417,3.25438 0,0 6.217708,-2.72521 6.217708,-6.16479 v -8.67834 c -0.635,0 -1.243541,-0.0265 -1.852083,-0.0794 z"
       class="st19"
       inkscape:connector-curvature="0"
       style="fill:#7fba00;stroke-width:0.26458332" />
    <path
       id="path2517"
       d="m 42.148821,240.74888 2.831042,-3.59833 c -3.730625,-0.42333 -4.365625,-2.01083 -4.365625,-2.01083 0,0 -0.846667,2.11666 -6.217708,2.11666 v 8.67834 c 0,1.05833 0.582083,2.03729 1.402291,2.88395 l 2.090209,-2.64583 z"
       class="st20"
       inkscape:connector-curvature="0"
       style="opacity:0.4;fill:#b8d432;stroke-width:0.26458332;enable-background:new" />
    <path
       id="path2519"
       d="m 43.074863,243.44763 h -0.370417 v -1.19062 c 0,-0.55563 -0.211666,-1.08479 -0.555625,-1.50813 v 0 l -0.02646,-0.0529 c -0.767292,-0.82021 -2.037292,-0.87312 -2.883958,-0.13229 -0.05292,0.0529 -0.07937,0.0794 -0.132292,0.13229 -0.396875,0.42333 -0.608542,0.97896 -0.608542,1.56104 v 1.21709 h -0.343958 c -0.15875,0 -0.264583,0.13229 -0.264583,0.26458 v 2.43417 0 0.74083 c 0,0.15875 0.132291,0.26458 0.264583,0.26458 h 4.92125 c 0.15875,0 0.264583,-0.13229 0.264583,-0.26458 v -3.175 c 0.02646,-0.15875 -0.105833,-0.29104 -0.264583,-0.29104 0,0 0,0 0,0 z m -1.349375,0 h -2.2225 v -1.19062 c 0,-0.3175 0.105833,-0.635 0.343958,-0.87313 0.370417,-0.42333 1.031875,-0.44979 1.455209,-0.0794 0.02646,0.0265 0.05292,0.0529 0.07937,0.0794 0.05292,0.0529 0.105833,0.10584 0.132291,0.15875 v 0 c 0.132292,0.21167 0.211667,0.44979 0.211667,0.68792 z"
       class="st21"
       inkscape:connector-curvature="0"
       style="fill:#ffffff;stroke-width:0.26458332" />
    <g
       aria-label="Security Centre"
       transform="rotate(-13.474298,902.97708,152.58122)"
       style="font-style:normal;font-weight:normal;font-size:14.11111069px;line-height:1.25;font-family:sans-serif;letter-spacing:0px;word-spacing:0px;fill:#ffffff;fill-opacity:1;stroke:#000000;stroke-width:0.26458332;stroke-opacity:1"
       id="text963">
      <path
         d="M 11.73047,59.43581 Q 11.300444,59.566975 10.81849,59.49247 10.338044,59.422905 9.936359,59.15103 9.4994066,58.852093 9.160147,58.377485 8.8223951,57.907821 8.5962487,57.166396 8.3535183,56.370601 8.3073173,55.687747 8.2626239,55.009836 8.3537343,54.263489 l 1.2258213,-0.373896 0.021107,0.0692 q -0.2942622,0.700258 -0.3232154,1.508686 -0.028953,0.808429 0.1670404,1.450996 0.2774062,0.909481 0.7722414,1.309622 0.496342,0.405084 1.064767,0.231705 0.48934,-0.149257 0.647778,-0.462315 0.159947,-0.308115 0.139203,-0.836653 -0.01422,-0.400865 -0.08263,-0.855433 -0.06691,-0.449626 -0.1158,-0.964176 -0.09091,-1.042001 0.263577,-1.668784 0.360942,-0.623348 1.166623,-0.869094 0.924309,-0.281929 1.750713,0.319628 0.831347,0.60005 1.197704,1.801157 0.2367,0.776024 0.285917,1.468764 0.04922,0.69274 -0.016,1.258302 l -1.156621,0.352788 -0.02111,-0.0692 q 0.227734,-0.52869 0.250484,-1.286603 0.0292,-0.754477 -0.189407,-1.471187 -0.239715,-0.785909 -0.712183,-1.165859 -0.47096,-0.375007 -0.985014,-0.218213 -0.459683,0.140211 -0.649287,0.457372 -0.189603,0.317161 -0.145577,0.957457 0.02729,0.337448 0.106335,0.950854 0.07905,0.613407 0.09887,1.050379 0.03279,0.886846 -0.280485,1.436224 -0.31327,0.549378 -1.104122,0.7906 z"
         style="font-size:10.58333302px;letter-spacing:0.5291667px"
         id="path866"
         inkscape:connector-curvature="0" />
      <path
         d="m 15.231066,64.956547 -1.994563,-3.756258 q -0.470103,0.249623 -0.74641,0.577722 -0.271742,0.325676 -0.364513,0.69089 -0.09305,0.353663 -0.03052,0.735879 0.06496,0.38678 0.273379,0.779293 0.276282,0.520308 0.760373,0.936121 0.491078,0.417954 0.810651,0.53496 l 0.02424,0.04564 -0.935641,0.496823 q -0.412799,-0.336649 -0.775959,-0.72306 -0.36316,-0.386411 -0.627325,-0.883898 -0.673741,-1.268821 -0.367195,-2.344351 0.311109,-1.077953 1.575366,-1.74927 1.250565,-0.664046 2.346491,-0.374183 1.09835,0.294428 1.689691,1.408069 0.547717,1.031488 0.240926,1.908214 -0.304368,0.881291 -1.413446,1.470208 z m 0.213725,-1.184219 q 0.673064,-0.363246 0.863416,-0.897296 0.192775,-0.529485 -0.170755,-1.214101 -0.365952,-0.68918 -0.990275,-0.884255 -0.621899,-0.190511 -1.253443,0.07462 z"
         style="font-size:10.58333302px;letter-spacing:0.5291667px"
         id="path868"
         inkscape:connector-curvature="0" />
      <path
         d="m 16.818432,71.06844 q -0.481119,-0.241997 -0.852029,-0.510429 -0.367749,-0.264345 -0.668077,-0.65269 -0.382523,-0.494628 -0.558745,-1.018147 -0.172134,-0.52668 -0.105426,-1.048621 0.06355,-0.52603 0.386754,-1.037291 0.323209,-0.511262 0.924121,-0.97598 1.120068,-0.866209 2.231973,-0.746203 1.115066,0.124094 1.895918,1.13379 0.303489,0.392433 0.483962,0.85387 0.183633,0.465525 0.267631,0.903581 l -0.854358,0.660722 -0.03161,-0.04088 q 0.002,-0.563364 -0.141672,-1.053254 -0.14052,-0.485801 -0.415557,-0.841443 -0.505816,-0.654054 -1.241307,-0.692798 -0.728243,-0.03782 -1.578513,0.619743 -0.825744,0.638592 -0.986797,1.351084 -0.153804,0.713419 0.364657,1.383824 0.180196,0.233007 0.428033,0.426769 0.247837,0.193763 0.494529,0.310019 0.21546,0.101213 0.423288,0.175664 0.211917,0.07129 0.347798,0.103392 l 0.03161,0.04088 z"
         style="font-size:10.58333302px;letter-spacing:0.5291667px"
         id="path870"
         inkscape:connector-curvature="0" />
      <path
         d="m 21.290897,75.820452 -0.718566,-0.653842 0.431257,-0.473947 q -0.623946,-0.04374 -1.095589,-0.193426 -0.471643,-0.149689 -0.872969,-0.514867 -0.6727,-0.612106 -0.675138,-1.361909 0.001,-0.753626 0.724438,-1.548634 l 2.521463,-2.771065 0.718565,0.653841 -2.211931,2.430893 q -0.29562,0.324883 -0.477193,0.585858 -0.178096,0.257152 -0.228268,0.51193 -0.04983,0.262078 0.04497,0.48807 0.0948,0.225992 0.408213,0.511178 0.279017,0.253885 0.739882,0.407741 0.464687,0.157333 0.956544,0.192667 l 2.900551,-3.18768 0.718566,0.653841 z"
         style="font-size:10.58333302px;letter-spacing:0.5291667px"
         id="path872"
         inkscape:connector-curvature="0" />
      <path
         d="m 28.871341,75.267637 -0.04329,-0.02823 q -0.153568,-0.161845 -0.315417,-0.292074 -0.154697,-0.131735 -0.388436,-0.28417 -0.376579,-0.24559 -0.83728,-0.305431 -0.457878,-0.06417 -0.954711,-0.01185 l -2.238538,3.432502 -0.813758,-0.5307 3.153149,-4.834936 0.813758,0.5307 -0.465774,0.714203 q 0.738851,-0.0734 1.21122,0.0064 0.47952,0.07828 0.864757,0.32952 0.212096,0.13832 0.298855,0.213409 0.08958,0.07076 0.260275,0.225266 z"
         style="font-size:10.58333302px;letter-spacing:0.5291667px"
         id="path874"
         inkscape:connector-curvature="0" />
      <path
         d="m 31.574202,74.308626 -0.978248,-0.493194 0.453645,-0.899803 0.978248,0.493194 z m -3.08898,5.989229 -0.867502,-0.43736 2.598572,-5.154258 0.867503,0.437361 z"
         style="font-size:10.58333302px;letter-spacing:0.5291667px"
         id="path876"
         inkscape:connector-curvature="0" />
      <path
         d="m 33.54842,82.328844 q -0.281789,-0.02902 -0.602804,-0.10045 -0.31618,-0.06961 -0.553086,-0.159014 -0.826754,-0.312003 -1.089191,-0.919193 -0.262438,-0.607191 0.107951,-1.588658 l 1.083798,-2.871882 -0.614022,-0.231721 0.288283,-0.763901 0.614022,0.231721 0.585689,-1.551976 0.908946,0.34302 -0.585689,1.551976 1.875909,0.707936 -0.288283,0.763901 -1.875909,-0.707936 -0.92871,2.460922 q -0.160562,0.425464 -0.232452,0.674503 -0.07006,0.244205 -0.03249,0.495892 0.03338,0.233533 0.182439,0.394729 0.155716,0.158185 0.537666,0.302326 0.222402,0.08393 0.487862,0.112307 0.267285,0.02354 0.390072,0.02017 l 0.04835,0.01824 z"
         style="font-size:10.58333302px;letter-spacing:0.5291667px"
         id="path878"
         inkscape:connector-curvature="0" />
      <path
         d="m 41.214431,78.265456 -4.943119,7.024865 -1.015855,-0.216631 1.553473,-2.13099 -1.103362,-5.852012 1.031016,0.219865 0.84113,4.554389 2.641079,-3.811806 z"
         style="font-size:10.58333302px;letter-spacing:0.5291667px"
         id="path880"
         inkscape:connector-curvature="0" />
      <path
         d="m 52.01033,83.109361 q -0.271013,0.150715 -0.492074,0.281043 -0.215918,0.129831 -0.574871,0.28383 -0.304354,0.127971 -0.668264,0.230532 -0.358271,0.107209 -0.800639,0.149841 -0.833297,0.0803 -1.539732,-0.08524 -0.701786,-0.171181 -1.253963,-0.621551 -0.540899,-0.441074 -0.891039,-1.165302 -0.350636,-0.729372 -0.446805,-1.727271 -0.09121,-0.946461 0.104388,-1.718091 0.1956,-0.77163 0.650122,-1.334591 0.440578,-0.546043 1.104567,-0.874803 0.669134,-0.329256 1.512719,-0.410553 0.617257,-0.05949 1.243747,0.03069 0.631633,0.08969 1.418817,0.392809 l 0.116492,1.208795 -0.07716,0.0074 q -0.683747,-0.46884 -1.329447,-0.650617 -0.6457,-0.181778 -1.355546,-0.11337 -0.581251,0.05602 -1.030996,0.291447 -0.445098,0.229792 -0.772138,0.661061 -0.317745,0.41999 -0.461346,1.030861 -0.138954,0.605232 -0.0646,1.376804 0.07783,0.807578 0.349883,1.368009 0.2772,0.559935 0.657031,0.891933 0.39675,0.345942 0.89297,0.485018 0.500868,0.133436 1.035825,0.08188 0.735565,-0.07089 1.354251,-0.384898 0.618687,-0.314011 1.130783,-0.872138 l 0.07201,-0.0069 z"
         style="font-size:10.58333302px;letter-spacing:0.5291667px"
         id="path882"
         inkscape:connector-curvature="0" />
      <path
         d="m 57.774147,79.153481 -4.078022,1.207266 q 0.151091,0.510372 0.417651,0.846438 0.265092,0.331111 0.604544,0.494697 0.328075,0.161564 0.715091,0.176335 0.391971,0.0133 0.818107,-0.11285 0.564878,-0.167228 1.0687,-0.5589 0.50731,-0.398095 0.685564,-0.687996 l 0.04955,-0.01467 0.300716,1.015789 q -0.412055,0.337559 -0.863,0.61657 -0.450946,0.279011 -0.991048,0.438904 -1.377509,0.4078 -2.370537,-0.106622 -0.994494,-0.519378 -1.400827,-1.891932 -0.401933,-1.35769 0.1002,-2.374025 0.507088,-1.017803 1.716125,-1.375728 1.119846,-0.331522 1.917996,0.143585 0.803106,0.473639 1.159564,1.677721 z m -1.118013,-0.445086 q -0.222057,-0.731883 -0.707552,-1.024692 -0.48054,-0.294277 -1.2238,-0.07424 -0.748215,0.221503 -1.063617,0.794526 -0.310446,0.571556 -0.176275,1.243228 z"
         style="font-size:10.58333302px;letter-spacing:0.5291667px"
         id="path884"
         inkscape:connector-curvature="0" />
      <path
         d="m 64.724061,78.860374 -0.864965,0.442358 -1.496489,-2.926158 q -0.181179,-0.354267 -0.380236,-0.641349 -0.201409,-0.291683 -0.401243,-0.410045 -0.213847,-0.134413 -0.477148,-0.115841 -0.265653,0.01397 -0.610719,0.190444 -0.354267,0.181179 -0.651328,0.553662 -0.297061,0.372483 -0.512503,0.825113 l 1.962377,3.837131 -0.864965,0.442359 -2.628268,-5.13918 0.864965,-0.442358 0.291768,0.570509 q 0.233111,-0.542926 0.569121,-0.952741 0.336011,-0.409815 0.791498,-0.642759 0.832759,-0.425888 1.526316,-0.147924 0.693557,0.277963 1.175915,1.221143 z"
         style="font-size:10.58333302px;letter-spacing:0.5291667px"
         id="path886"
         inkscape:connector-curvature="0" />
      <path
         d="m 69.10901,75.704186 q -0.178595,0.219889 -0.414166,0.449366 -0.231395,0.226432 -0.43594,0.375694 -0.713818,0.520895 -1.365584,0.407961 -0.651767,-0.112933 -1.270139,-0.960331 l -1.809423,-2.479578 -0.530146,0.386863 -0.481294,-0.659551 0.530145,-0.386863 -0.977819,-1.339975 0.784782,-0.572679 0.97782,1.339974 1.619657,-1.181913 0.481294,0.659551 -1.619657,1.181913 1.550499,2.124757 q 0.268063,0.367345 0.437069,0.563879 0.165959,0.192359 0.39713,0.298749 0.213683,0.09996 0.430186,0.06352 0.217632,-0.04366 0.547407,-0.284309 0.192021,-0.140123 0.36114,-0.346698 0.166072,-0.21075 0.230493,-0.315335 l 0.04174,-0.03046 z"
         style="font-size:10.58333302px;letter-spacing:0.5291667px"
         id="path888"
         inkscape:connector-curvature="0" />
      <path
         d="m 69.801532,68.72499 -0.0375,0.03556 q -0.193054,0.111836 -0.357275,0.239061 -0.164026,0.119919 -0.366524,0.311922 -0.326245,0.309339 -0.491323,0.743592 -0.168633,0.430503 -0.232987,0.925921 l 2.819602,2.973712 -0.704991,0.668456 -3.971621,-4.188698 0.704992,-0.668455 0.586676,0.618742 q 0.09999,-0.735724 0.287178,-1.1767 0.187382,-0.448281 0.521128,-0.76473 0.183748,-0.174225 0.276914,-0.241199 0.08961,-0.07072 0.279497,-0.200921 z"
         style="font-size:10.58333302px;letter-spacing:0.5291667px"
         id="path890"
         inkscape:connector-curvature="0" />
      <path
         d="m 74.760131,65.526878 -2.595702,3.368989 q 0.421636,0.324857 0.834611,0.440811 0.408882,0.112801 0.77978,0.04629 0.360495,-0.06148 0.682671,-0.276422 0.32533,-0.219041 0.596569,-0.571086 0.359551,-0.466664 0.538045,-1.07935 0.177556,-0.619933 0.151983,-0.959291 l 0.03154,-0.04093 0.839177,0.64656 q -0.135884,0.515045 -0.337599,1.005463 -0.201715,0.490418 -0.545496,0.936614 -0.876798,1.138006 -1.982847,1.303507 -1.110142,0.162347 -2.244054,-0.711298 -1.121632,-0.864182 -1.310755,-1.981907 -0.185968,-1.121818 0.583596,-2.120644 0.712793,-0.925141 1.637923,-1.008232 0.928284,-0.08718 1.923016,0.679225 z m -1.166644,0.29495 q -0.608999,-0.462691 -1.173968,-0.415239 -0.561816,0.04336 -1.034909,0.657391 -0.476246,0.618126 -0.395776,1.267247 0.08362,0.645027 0.586125,1.110471 z"
         style="font-size:10.58333302px;letter-spacing:0.5291667px"
         id="path892"
         inkscape:connector-curvature="0" />
    </g>
  </g>
</svg>
